<?xml version="1.0" encoding="utf-8"?>
<!-- Generator: Adobe Illustrator 22.1.0, SVG Export Plug-In . SVG Version: 6.00 Build 0)  -->
<svg version="1.1" id="Modo_de_isolamento" xmlns="http://www.w3.org/2000/svg" xmlns:xlink="http://www.w3.org/1999/xlink" x="0px"
	 y="0px" viewBox="0 0 421.8 421.8" style="enable-background:new 0 0 421.8 421.8;" xml:space="preserve">
<style type="text/css">
	.st0{fill:#FFFFFF;}
</style>
<g>
	<path class="st0" d="M234.4,234.4"/>
	<path class="st0" d="M210.9,0C94.4,0,0,94.4,0,210.9s94.4,210.9,210.9,210.9s210.9-94.4,210.9-210.9S327.4,0,210.9,0z M210.9,375.3
		c-90.8,0-164.3-73.6-164.3-164.3S120.2,46.6,210.9,46.6s164.3,73.6,164.3,164.4S301.7,375.3,210.9,375.3z"/>
	<path class="st0" d="M269.5,145l-75.4,75.4l-40.8-40.9c-5.8-5.9-15.3-5.9-21.2,0l-12.8,12.8c-5.8,5.8-5.8,15.3,0,21.2l63.3,63.3
		c5.9,5.9,15.5,5.9,21.3,0l98.7-98.7c5.8-5.9,5.8-15.3,0-21.2l-12-12C284.8,139.1,275.3,139.1,269.5,145z"/>
</g>
</svg>
