<?xml version="1.0" encoding="utf-8"?>
<!-- Generator: Adobe Illustrator 23.0.4, SVG Export Plug-In . SVG Version: 6.00 Build 0)  -->
<svg version="1.1" id="Capa_1" xmlns="http://www.w3.org/2000/svg" xmlns:xlink="http://www.w3.org/1999/xlink" x="0px" y="0px"
	 viewBox="0 0 227.09 222.92" style="enable-background:new 0 0 227.09 222.92;" xml:space="preserve" fill="#fff">
<g>
	<path d="M122.47,24.52c-7.04,1.93-11.45,9.29-9.53,16.33l1.54,5.63c-4.89,8.67-17.88,24.74-42.63,40.47
		c-17.05,10.84-48.58,22.98-54.35,25.16c-0.41-0.34-0.75-0.67-1.22-0.94c-2.23-1.29-4.78-1.65-7.33-0.97
		c-5.1,1.39-8.11,6.68-6.75,11.78l10.21,38.25c0.66,2.49,2.29,4.68,4.52,5.97c2.23,1.29,4.87,1.76,7.35,1.08l0.06-0.02
		c2.55-0.7,4.56-2.48,5.78-4.62c1.79,4.56,4.53,8.67,8.16,12.18c6.62,6.39,15.33,9.78,24.53,9.61c2.87-0.05,5.72-0.47,8.47-1.23
		c13.51-3.7,22.89-15.02,24.68-28.59c26.09,1.65,43.11,8.35,51.6,12.86l1.54,5.62c1.93,7.04,9.47,11.13,16.51,9.2
		c7.04-1.93,11.45-9.29,9.53-16.33L138.98,33.73C137.06,26.69,129.51,22.6,122.47,24.52z M23.51,164.21L23.51,164.21L23.51,164.21
		L23.51,164.21z M65.87,163.38c-1.11,0.3-2.27,0.47-3.43,0.49c-3.71,0.07-7.23-1.32-9.91-3.89c-0.84-0.81-1.56-1.72-2.16-2.7
		c7.66-1.04,16.52-2.07,24.91-2.65C73.79,158.83,70.35,162.16,65.87,163.38z"/>
	<path d="M202.58,50.95c-4.34-3.65-10.82-3.1-14.47,1.24c-3.65,4.34-3.1,10.81,1.24,14.47c6.2,5.22,10.68,12.38,12.95,20.7
		c2.27,8.29,2.02,17.03-0.68,24.62c-1.91,5.34,0.88,11.22,6.22,13.12c2.06,0.73,4.19,0.77,6.15,0.24c3.13-0.85,5.8-3.17,6.97-6.46
		c4.17-11.68,4.57-24.46,1.15-36.95C218.73,69.58,211.97,58.87,202.58,50.95z"/>
	<path d="M180.4,68.75c-4.34-3.66-10.82-3.1-14.47,1.24c-3.65,4.34-3.1,10.81,1.24,14.47c3.14,2.65,5.52,6.46,6.69,10.73
		c1.18,4.32,1.06,8.84-0.33,12.75c-1.91,5.34,0.88,11.22,6.22,13.12c2.06,0.74,4.19,0.77,6.15,0.24c3.13-0.85,5.8-3.17,6.97-6.46
		c2.84-7.94,3.11-16.61,0.8-25.07C191.37,81.4,186.79,74.13,180.4,68.75z"/>
</g>
</svg>
