<?xml version="1.0" encoding="utf-8"?>
<!-- Generator: Adobe Illustrator 23.0.4, SVG Export Plug-In . SVG Version: 6.00 Build 0)  -->
<svg version="1.1" id="Camada_1" xmlns="http://www.w3.org/2000/svg" xmlns:xlink="http://www.w3.org/1999/xlink" x="0px" y="0px"
	 viewBox="0 0 753.05 512" style="enable-background:new 0 0 753.05 512;" xml:space="preserve" fill="#fff">

<g>
	<path d="M193.61,204c0-6.6-5.4-12-12-12h-40c-6.6,0-12,5.4-12,12v40c0,6.6,5.4,12,12,12h40c6.6,0,12-5.4,12-12V204z"/>
	<path d="M269.61,96c-6.6,0-12,5.4-12,12v40c0,6.6,5.4,12,12,12h40c6.6,0,12-5.4,12-12v-40c0-6.6-5.4-12-12-12H269.61z"
		/>
	<path d="M437.61,464l-180-1v-67c0-6.6-5.4-12-12-12h-40c-6.6,0-12,5.4-12,12v67H81.11l0.5-415l288.5,1v85h48V24
		c0-13.3-10.7-24-24-24h-337c-13.3,0-24,10.7-24,24v440h-19.5c-6.6,0-12,5.4-12,12v36h448v-36C449.61,469.4,444.21,464,437.61,464z"
		/>
	<path d="M181.61,288h-40c-6.6,0-12,5.4-12,12v40c0,6.6,5.4,12,12,12h40c6.6,0,12-5.4,12-12v-40
		C193.61,293.4,188.21,288,181.61,288z"/>
	<path d="M193.61,108c0-6.6-5.4-12-12-12h-40c-6.6,0-12,5.4-12,12v40c0,6.6,5.4,12,12,12h40c6.6,0,12-5.4,12-12V108z"/>
</g>
<g>
	<g id="XMLID_1736_">
		<path id="XMLID_1737_" d="M642.12,273.85c-25.6,0-46.3,20.8-46.3,46.3c0,6.1,5,11.1,11.1,11.1c6.1,0,11.1-5,11.1-11.1
			c0-13.3,10.9-24.2,24.2-24.2c6.1,0,11.1-5,11.1-11.1C653.22,278.75,648.22,273.85,642.12,273.85z"/>
		<path id="XMLID_1738_" d="M717.62,241.95c-2.7-2.6-5.6-5.1-8.6-7.5l0,0l-41-34.8c-15.8-11.2-34.6-18.3-55-19.7l2.2,2.2l-24.9-25
			h-0.2c-6.9-6.3-16.2-10.2-26.3-10.2c-17.4,0-32.1,11.3-37.1,27c-5-3.2-10.8-5.1-17.1-5.5c-1-0.1-2.1-0.1-3.1-0.1
			c-7.1,0-13.7,2.1-19.3,5.6c-5.1-15.6-19.8-26.9-37.1-26.9c-10.1,0-19.3,3.8-26.3,10.2h-0.2l-24.9,25l2.2-2.2
			c-20.4,1.4-39.3,8.6-55,19.7l-41,34.8l0,0c-3,2.3-5.9,4.8-8.6,7.5c-20.5,19.8-33.2,47.5-33.2,78.2c0,60,48.8,108.8,108.8,108.8
			c55.4,0,101.3-41.7,107.9-95.4c8,4.6,17.3,7.2,27.1,7.2c9.9,0,19.1-2.6,27.1-7.2c6.7,53.6,52.5,95.3,107.9,95.3
			c60,0,108.8-48.8,108.8-108.8C750.82,289.45,738.12,261.75,717.62,241.95z M371.92,394.45c-41,0-74.2-33.2-74.2-74.2
			s33.2-74.2,74.2-74.2s74.2,33.2,74.2,74.2C446.22,361.15,412.92,394.45,371.92,394.45z M507.02,310.05
			c-13.3,0-24.1-10.8-24.1-24.1s10.8-24.1,24.1-24.1c13.3,0,24.1,10.8,24.1,24.1S520.32,310.05,507.02,310.05z M642.12,394.45
			c-41,0-74.2-33.2-74.2-74.2s33.2-74.2,74.2-74.2s74.2,33.2,74.2,74.2C716.32,361.15,683.12,394.45,642.12,394.45z"/>
		<path id="XMLID_1745_" d="M371.92,273.85c-25.6,0-46.3,20.8-46.3,46.3c0,6.1,5,11.1,11.1,11.1s11.1-5,11.1-11.1
			c0-13.3,10.9-24.2,24.2-24.2c6.1,0,11.1-5,11.1-11.1C383.02,278.75,378.02,273.85,371.92,273.85z"/>
	</g>
</g>
</svg>
