<?xml version="1.0" encoding="iso-8859-1"?>
<!-- Generator: Adobe Illustrator 22.1.0, SVG Export Plug-In . SVG Version: 6.00 Build 0)  -->
<svg version="1.1" id="Camada_1" xmlns="http://www.w3.org/2000/svg" xmlns:xlink="http://www.w3.org/1999/xlink" x="0px" y="0px"
	 viewBox="0 0 6.624 8.281" style="enable-background:new 0 0 6.624 8.281;" xml:space="preserve" fill='#fff'>
<g>
	<path d="M6.62,6.727L6.263,2.225C6.235,1.862,5.928,1.578,5.564,1.578H4.996C4.939,0.698,4.206,0,3.312,0S1.685,0.698,1.629,1.578
		H1.06c-0.364,0-0.671,0.284-0.699,0.646L0.004,6.728c-0.031,0.4,0.108,0.797,0.38,1.091c0.272,0.294,0.658,0.462,1.059,0.462h3.738
		c0.401,0,0.787-0.169,1.059-0.462C6.512,7.525,6.651,7.127,6.62,6.727z M3.312,0.75c0.48,0,0.877,0.363,0.931,0.828H2.381
		C2.435,1.112,2.832,0.75,3.312,0.75z M5.69,7.309C5.557,7.452,5.376,7.531,5.181,7.531H1.456c-0.2,0-0.394-0.081-0.528-0.23
		C0.8,7.159,0.737,6.977,0.752,6.786l0.354-4.458h0.52v0.25c0,0.103,0.084,0.188,0.188,0.188h0.375c0.104,0,0.188-0.084,0.188-0.188
		v-0.25h1.874v0.25c0,0.104,0.084,0.188,0.187,0.188h0.375c0.104,0,0.188-0.084,0.188-0.188v-0.25h0.52l0.354,4.457
		C5.887,6.98,5.823,7.166,5.69,7.309z"/>
	<path d="M2.997,5.069L2.544,4.616c-0.073-0.073-0.192-0.073-0.265,0L2.025,4.87c-0.073,0.073-0.073,0.192,0,0.265l0.453,0.453
		l0.387,0.387c0.073,0.073,0.192,0.073,0.265,0l0.387-0.387l1.083-1.083c0.073-0.073,0.073-0.192,0-0.265L4.345,3.986
		c-0.073-0.073-0.192-0.073-0.265,0L2.997,5.069z"/>
</g>
</svg>
