<?xml version="1.0" encoding="utf-8"?>
<!-- Generator: Adobe Illustrator 23.0.4, SVG Export Plug-In . SVG Version: 6.00 Build 0)  -->
<svg version="1.1" id="Camada_1" focusable="false" xmlns="http://www.w3.org/2000/svg" xmlns:xlink="http://www.w3.org/1999/xlink"
	 x="0px" y="0px" viewBox="0 0 640 512" style="enable-background:new 0 0 640 512;" xml:space="preserve" fill="#e75629">
<g>
	<path d="M224,289c79.5,0,144-64.5,144-144S303.5,1,224,1S80,65.5,80,145S144.5,289,224,289z M224,49c52.9,0,96,43.1,96,96
		s-43.1,96-96,96s-96-43.1-96-96S171.1,49,224,49z"/>
	<path d="M340.65,465H48v-25.6c0-47.6,38.8-86.4,86.4-86.4c14.6,0,38.3,16,89.6,16c47.16,0,70.6-13.31,85.51-15.65
		c0.34-18.31,3.4-35.01,8.91-48.27c-1.6-0.06-3.21-0.1-4.83-0.1c-28.7,0-42.5,16-89.6,16c-47.1,0-60.8-16-89.6-16
		C60.2,305,0,365.2,0,439.4V465c0,26.5,21.5,48,48,48h341.45C369.1,500.84,352.95,484.07,340.65,465z"/>
</g>
<g>
	<path d="M495.83,211.52c11,0,22.14,1.2,33.17,3.68c3.3,0.7,5.7,3.7,5.7,7.1v29.8c13.5,4.8,26,12,36.9,21.3l25.8-14.9
		c1.15-0.65,2.4-0.96,3.63-0.96c1.99,0,3.95,0.82,5.37,2.36c15,16.2,26.5,35.8,33.2,57.4c1,3.3-0.3,6.8-3.3,8.5l-25.8,14.9
		c2.6,14.1,2.6,28.5,0,42.6l25.8,14.9c2.9,1.7,4.3,5.2,3.3,8.5c-6.7,21.6-18.2,41.2-33.2,57.4c-1.42,1.54-3.41,2.36-5.41,2.36
		c-1.24,0-2.48-0.31-3.59-0.96l-25.8-14.9c-10.9,9.3-23.4,16.5-36.9,21.3v29.8c0,3.4-2.4,6.4-5.7,7.1
		c-10.71,2.42-21.8,3.68-33.03,3.68c-11,0-22.14-1.2-33.17-3.68c-3.3-0.7-5.7-3.7-5.7-7.1v-29.8c-13.5-4.8-26-12-36.9-21.3
		l-25.8,14.9c-1.15,0.65-2.4,0.96-3.63,0.96c-1.99,0-3.95-0.82-5.37-2.36c-15-16.3-26.5-35.8-33.2-57.4c-1-3.3,0.3-6.8,3.3-8.5
		l25.8-14.9c-2.6-14.1-2.6-28.5,0-42.6l-25.8-14.9c-2.9-1.7-4.3-5.2-3.3-8.5c6.7-21.6,18.2-41.2,33.2-57.4
		c1.42-1.54,3.41-2.36,5.41-2.36c1.24,0,2.48,0.31,3.59,0.96l25.8,14.9c10.9-9.3,23.4-16.5,36.9-21.3v-29.8c0-3.4,2.4-6.4,5.7-7.1
		C473.51,212.78,484.6,211.52,495.83,211.52 M496,410.5c26.8,0,48.5-21.8,48.5-48.5s-21.8-48.5-48.5-48.5s-48.5,21.8-48.5,48.5
		S469.2,410.5,496,410.5"/>
</g>
</svg>
