<?xml version="1.0" encoding="utf-8"?>
<!-- Generator: Adobe Illustrator 23.0.4, SVG Export Plug-In . SVG Version: 6.00 Build 0)  -->
<svg version="1.1" id="Modo_de_isolamento" xmlns="http://www.w3.org/2000/svg" xmlns:xlink="http://www.w3.org/1999/xlink" x="0px"
	 y="0px" viewBox="0 0 1920 1080" style="enable-background:new 0 0 1920 1080;" xml:space="preserve" fill="#e75629">
<g>
	<path d="M983.5,563.5"/>
	<path d="M960,329.08c-116.49,0-210.92,94.43-210.92,210.92S843.51,750.92,960,750.92s210.92-94.43,210.92-210.92
		S1076.49,329.08,960,329.08z M960,704.35c-90.77,0-164.35-73.58-164.35-164.35c0-90.77,73.58-164.35,164.35-164.35
		c90.77,0,164.35,73.58,164.35,164.35C1124.35,630.77,1050.77,704.35,960,704.35z"/>
	<path d="M1018.53,474.05l-75.38,75.38l-40.85-40.85c-5.85-5.85-15.32-5.85-21.17,0l-12.82,12.82
		c-5.85,5.85-5.85,15.32,0,21.17l63.34,63.34c5.89,5.89,15.45,5.89,21.35,0l98.69-98.69c5.85-5.85,5.85-15.32,0-21.17l-11.99-11.99
		C1033.85,468.21,1024.37,468.21,1018.53,474.05z"/>
</g>
</svg>
