<?xml version="1.0" encoding="utf-8"?>
<!-- Generator: Adobe Illustrator 23.0.4, SVG Export Plug-In . SVG Version: 6.00 Build 0)  -->
<svg version="1.1" id="Modo_de_isolamento" xmlns="http://www.w3.org/2000/svg" xmlns:xlink="http://www.w3.org/1999/xlink" x="0px"
	 y="0px" viewBox="0 0 393.8 393.8" style="enable-background:new 0 0 393.8 393.8;" xml:space="preserve" fill="#e75629">
<title>adicionar</title>
<path d="M232.71,127.87l-35.81,35.81l-35.81-35.81c-4.69-4.69-12.28-4.69-16.97,0l-16.26,16.26
	c-4.69,4.69-4.69,12.28,0,16.97l35.81,35.81l-35.81,35.81c-4.69,4.69-4.69,12.28,0,16.97l16.26,16.26c4.69,4.69,12.28,4.69,16.97,0
	l35.81-35.81l35.81,35.81c4.69,4.69,12.28,4.69,16.97,0l16.26-16.26c4.69-4.69,4.69-12.28,0-16.97l-35.81-35.81l35.81-35.81
	c4.69-4.69,4.69-12.28,0-16.97l-16.26-16.26C244.99,123.18,237.4,123.18,232.71,127.87z"/>
<path d="M57.67,57.67c-76.89,76.89-76.89,201.57,0,278.46s201.57,76.89,278.46,0s76.89-201.57,0-278.46
	S134.56-19.22,57.67,57.67z M303.43,303.43c-58.84,58.84-154.23,58.84-213.07,0s-58.84-154.23,0-213.07s154.23-58.84,213.07,0
	S362.27,244.6,303.43,303.43L303.43,303.43z"/>
</svg>
