<?xml version="1.0" encoding="utf-8"?>
<!-- Generator: Adobe Illustrator 23.0.4, SVG Export Plug-In . SVG Version: 6.00 Build 0)  -->
<svg version="1.1" id="Camada_1" focusable="false" xmlns="http://www.w3.org/2000/svg" xmlns:xlink="http://www.w3.org/1999/xlink"
	 x="0px" y="0px" viewBox="0 0 502.4 724.64" style="enable-background:new 0 0 502.4 724.64;" xml:space="preserve" fill="#e75629">
<g>
	<path d="M50.76,432.04c7.54,7.6,17.58,11.79,28.28,11.79c10.89,0,21.45-4.54,28.97-12.46l87.19-91.52v352.41
		c0,16.57,13.43,30,30,30h52c16.57,0,30-13.43,30-30V339.85l87.12,91.44l0.02,0.02l0.02,0.02c7.51,7.84,18.05,12.33,28.92,12.33
		c10.68,0,20.71-4.15,28.25-11.69l22.18-22.18c7.55-7.49,11.72-17.48,11.75-28.14c0.03-10.72-4.14-20.81-11.74-28.41L279.43,158.96
		c-7.52-7.58-17.55-11.75-28.24-11.75c-10.68,0-20.73,4.17-28.3,11.74L28.6,353.32c-7.55,7.49-11.72,17.48-11.75,28.13
		c-0.03,10.72,4.14,20.81,11.74,28.41L50.76,432.04z"/>
</g>
<path d="M503.02,37.16v57.33c0,16.57-13.43,30-30,30H30c-16.57,0-30-13.43-30-30V37.16c0-16.57,13.43-30,30-30h443.02
	C489.58,7.16,503.02,20.59,503.02,37.16z"/>
</svg>
