<?xml version="1.0" encoding="iso-8859-1"?>
<!-- Generator: Adobe Illustrator 22.1.0, SVG Export Plug-In . SVG Version: 6.00 Build 0)  -->
<svg version="1.1" id="Camada_1" xmlns="http://www.w3.org/2000/svg" xmlns:xlink="http://www.w3.org/1999/xlink" x="0px" y="0px"
	 viewBox="0 0 423.956 530" style="enable-background:new 0 0 423.956 530;" xml:space="preserve">
<g>
	<path style="fill:#E75629;" d="M423.688,430.53l-22.86-288.12c-1.78-23.22-21.42-41.41-44.71-41.41h-36.39
		c-3.6-56.3-50.55-101-107.75-101s-104.14,44.7-107.75,101h-36.38c-23.29,0-42.93,18.17-44.71,41.35L0.268,430.57
		c-1.96,25.57,6.91,51.02,24.33,69.83c17.42,18.81,42.12,29.6,67.76,29.6h239.23c25.64,0,50.34-10.79,67.77-29.6
		C416.788,481.59,425.648,456.12,423.688,430.53z M211.978,47.99c30.71,0,56.11,23.21,59.58,53.01h-119.16
		C155.868,71.2,181.268,47.99,211.978,47.99z M364.148,467.79c-8.5,9.17-20.06,14.22-32.56,14.22H93.168
		c-12.82,0-25.23-5.18-33.8-14.71c-8.19-9.1-12.18-20.8-11.25-33l22.64-285.31h33.26V165c0,6.6,5.4,12,12,12h23.99
		c6.63,0,12-5.37,12-12v-16.01h119.96V165c0,6.63,5.37,12,12,12h23.99c6.63,0,12-5.37,12-12v-16.01h33.26l22.64,285.25
		C376.798,446.7,372.648,458.62,364.148,467.79z"/>
	<path style="fill:#E75629;" d="M191.828,324.4l-28.99-28.99c-4.69-4.69-12.28-4.69-16.97,0l-16.26,16.26
		c-4.69,4.69-4.69,12.28,0,16.97l28.99,28.99l24.75,24.75c4.69,4.69,12.28,4.69,16.97,0l24.75-24.75l69.3-69.3
		c4.69-4.69,4.69-12.28,0-16.97l-16.26-16.26c-4.69-4.69-12.28-4.69-16.97,0L191.828,324.4z"/>
</g>
</svg>
