<?xml version="1.0" encoding="utf-8"?>
<!-- Generator: Adobe Illustrator 23.0.4, SVG Export Plug-In . SVG Version: 6.00 Build 0)  -->
<svg version="1.1" id="Camada_1" xmlns="http://www.w3.org/2000/svg" xmlns:xlink="http://www.w3.org/1999/xlink" x="0px" y="0px"
	 viewBox="0 0 592 512" style="enable-background:new 0 0 592 512;" xml:space="preserve" fill="#e75629">
<g>
	<path d="M399.57,151.31c-71.73,0-129.84,58.13-129.84,129.86s58.12,129.85,129.85,129.85
		c26.02,0,50.21-7.63,70.51-20.79l78.46,78.46c4.68,4.68,12.27,4.68,16.95,0l21.59-21.59c4.68-4.68,4.68-12.27,0-16.95l-78.47-78.47
		c13.15-20.31,20.78-44.51,20.78-70.51C529.42,209.43,471.3,151.31,399.57,151.31z M479.49,281.17c0,44.14-35.72,79.91-79.91,79.91
		c-44.14,0-79.91-35.71-79.91-79.91c0-44.14,35.71-79.91,79.91-79.91C443.72,201.26,479.49,236.96,479.49,281.17z"/>
	<g>
		<path d="M256.15,178.59H106.85c-6.62,0-11.99-5.36-11.99-11.99v-28.96c0-6.62,5.36-11.99,11.99-11.99h149.31
			c6.62,0,11.99,5.36,11.99,11.99v28.96C268.14,173.23,262.78,178.59,256.15,178.59z"/>
	</g>
	<g>
		<path d="M196.23,273.98h-89.38c-6.62,0-11.99-5.36-11.99-11.99v-28.96c0-6.62,5.36-11.99,11.99-11.99h89.38
			c6.62,0,11.99,5.36,11.99,11.99v28.96C208.21,268.61,202.85,273.98,196.23,273.98z"/>
	</g>
	<g>
		<path d="M136.3,369.36h-29.45c-6.62,0-11.99-5.36-11.99-11.99v-28.96c0-6.62,5.36-11.99,11.99-11.99h29.45
			c6.62,0,11.99,5.36,11.99,11.99v28.96C148.29,364,142.92,369.36,136.3,369.36z"/>
	</g>
	<path d="M337.46,438.79v21.14c0,1.73-1.41,3.14-3.14,3.14H52.46c-1.73,0-3.14-1.41-3.14-3.14V50.09
		c0-1.73,1.41-3.14,3.14-3.14h210.23c40.28,0,73.2,32.02,74.7,71.94h47.98C383.86,52.54,329.41-0.99,262.7-0.99H52.46
		C24.3-0.99,1.38,21.92,1.38,50.09v409.84c0,28.17,22.91,51.08,51.08,51.08h281.86c28.17,0,51.08-22.91,51.08-51.08v-21.14
		L337.46,438.79L337.46,438.79z"/>
</g>
</svg>
