<?xml version="1.0" encoding="utf-8"?>
<!-- Generator: Adobe Illustrator 23.0.4, SVG Export Plug-In . SVG Version: 6.00 Build 0)  -->
<svg version="1.1" xmlns="http://www.w3.org/2000/svg" xmlns:xlink="http://www.w3.org/1999/xlink" x="0px" y="0px"
	 viewBox="0 0 512 512" style="enable-background:new 0 0 512 512;" xml:space="preserve" fill="#e75629">
<style type="text/css">
	.st0{display:none;}
	.st1{display:inline;}
</style>
<g id="Camada_1" focusable="false" class="st0">
	<path class="st1" d="M345.6,304c-28.7,0-42.5,16-89.6,16s-60.8-16-89.6-16C92.2,304,32,364.2,32,438.4V464c0,26.5,21.5,48,48,48
		h352c26.5,0,48-21.5,48-48v-25.6C480,364.2,419.8,304,345.6,304z M432,464H80v-25.6c0-47.6,38.8-86.4,86.4-86.4
		c14.6,0,38.3,16,89.6,16c51.7,0,74.9-16,89.6-16c47.6,0,86.4,38.8,86.4,86.4V464z M256,288c79.5,0,144-64.5,144-144S335.5,0,256,0
		S112,64.5,112,144S176.5,288,256,288z M256,48c52.9,0,96,43.1,96,96s-43.1,96-96,96s-96-43.1-96-96S203.1,48,256,48z"/>
</g>
<g id="Camada_2">
	<g>
		<circle cx="191.09" cy="266.07" r="30.68"/>
		<ellipse transform="matrix(0.1602 -0.9871 0.9871 0.1602 4.9977 538.0048)" cx="318.67" cy="266.07" rx="30.68" ry="30.68"/>
		<path d="M323.52,345.74c-8.07-5.38-18.84-2.69-23.69,5.38c-8.61,12.92-25.3,20.99-44.14,20.99s-36.07-8.07-44.14-20.99
			c-5.38-8.07-16.15-10.23-23.69-5.38c-8.07,5.38-10.23,16.15-5.38,23.69c14.53,22.61,43.07,37.14,73.21,37.14s58.68-14,73.21-37.14
			C333.75,361.89,331.05,351.12,323.52,345.74z"/>
		<path d="M468.86,223.54c-5.38-4.84-14.53-10.23-27.45-11.3c0.54-19.92,0-43.6-1.61-72.67c-1.08-15.07-3.23-27.99-7-39.3
			c4.31-22.07,7-46.83,2.69-66.21c-1.61-7-9.15-11.3-16.15-8.61c-3.77,1.61-8.07,2.69-12.38,4.31c1.08-6.46,1.08-12.38,0.54-18.3
			c-1.08-7.54-9.15-12.38-16.69-9.69c-30.15,11.3-76.44,22.07-136.19,22.07c-97.97,0-177.64,4.84-185.18,115.2
			c-2.15,29.07-2.69,52.76-1.61,72.67c-12.92,1.08-22.07,6.46-27.45,11.3c-13.46,11.84-19.92,31.22-19.92,59.21
			c0,36.61,14,57.6,43.6,63.52c8.61,50.06,41.45,96.9,95.82,135.12C187.86,500.77,220.7,511,255.15,511s67.29-10.23,95.28-30.15
			c54.37-38.22,87.21-84.52,95.82-135.12c29.07-6.46,43.6-27.45,43.6-64.06C488.78,254.76,482.32,235.38,468.86,223.54z
			 M432.26,313.44c-10.77,1.08-18.84,9.15-19.92,19.92c-4.84,44.14-32.3,84.52-82.36,120.04c-44.14,31.22-106.05,31.22-150.19,0
			c-50.06-34.99-78.06-75.36-82.36-119.51c-1.08-10.77-9.15-18.84-19.92-19.92c-12.92-1.08-22.07-2.15-22.07-31.22
			c0-22.61,5.38-30.68,8.61-33.38c1.08-1.08,3.77-2.69,10.23-2.69c1.08,10.77,2.15,20.46,3.77,26.38
			c2.69,11.84,33.38,11.3,34.99,0.54c1.61-8.61-5.38-67.29,22.07-118.97c28.53,11.84,72.13,19.38,120.58,19.38
			s92.05-7.54,120.58-19.38c27.45,51.68,20.46,109.82,22.07,118.97c1.61,10.23,32.3,10.77,34.99-0.54
			c1.61-5.38,2.69-15.61,3.77-26.38c6.46,0,9.15,2.15,10.23,2.69c3.23,2.69,8.61,10.77,8.61,33.38
			C454.33,311.28,445.18,312.36,432.26,313.44z"/>
	</g>
</g>
</svg>
