<?xml version="1.0" encoding="utf-8"?>
<!-- Generator: Adobe Illustrator 22.1.0, SVG Export Plug-In . SVG Version: 6.00 Build 0)  -->
<svg version="1.1" id="Camada_1" focusable="false" xmlns="http://www.w3.org/2000/svg" xmlns:xlink="http://www.w3.org/1999/xlink"
	 x="0px" y="0px" viewBox="0 0 518.2 724.6" style="enable-background:new 0 0 518.2 724.6;" xml:space="preserve">
<style type="text/css">
	.st0{fill:#E75629;}
</style>
<path class="st0" d="M510.6,627.2v57.3c0,16.6-13.4,30-30,30h-443c-16.6,0-30-13.4-30-30v-57.3c0-16.6,13.4-30,30-30h443
	C497.1,597.2,510.6,610.6,510.6,627.2z"/>
<g>
	<path class="st0" d="M459.5,296.4c-7.5-7.6-17.6-11.8-28.3-11.8c-10.9,0-21.5,4.5-29,12.5L315,388.6V36.2c0-16.6-13.4-30-30-30h-52
		c-16.6,0-30,13.4-30,30v352.4l-87.1-91.4l0,0l0,0c-7.5-7.8-18-12.3-28.9-12.3c-10.7,0-20.7,4.1-28.2,11.7l-22.2,22.2
		c-7.5,7.5-11.7,17.5-11.8,28.1c0,10.7,4.1,20.8,11.7,28.4l194.3,194.3c7.5,7.6,17.6,11.8,28.2,11.8c10.7,0,20.7-4.2,28.3-11.7
		l194.3-194.4c7.5-7.5,11.7-17.5,11.8-28.1c0-10.7-4.1-20.8-11.7-28.4L459.5,296.4z"/>
</g>
</svg>
