<?xml version="1.0" encoding="utf-8"?>
<!-- Generator: Adobe Illustrator 23.0.4, SVG Export Plug-In . SVG Version: 6.00 Build 0)  -->
<svg version="1.1" id="Camada_1" focusable="false" xmlns="http://www.w3.org/2000/svg" xmlns:xlink="http://www.w3.org/1999/xlink"
	 x="0px" y="0px" viewBox="0 0 518.25 724.64" style="enable-background:new 0 0 518.25 724.64;" xml:space="preserve">
<g>
	<path d="M459.47,436.42c-7.54-7.6-17.58-11.79-28.28-11.79c-10.89,0-21.45,4.54-28.97,12.46l-87.19,91.52V176.2
		c0-16.57-13.43-30-30-30h-52c-16.57,0-30,13.43-30,30v352.41l-87.12-91.44l-0.02-0.02l-0.02-0.02
		c-7.51-7.84-18.05-12.33-28.92-12.33c-10.68,0-20.71,4.15-28.25,11.69l-22.18,22.18c-7.55,7.49-11.72,17.48-11.75,28.14
		c-0.03,10.72,4.14,20.81,11.74,28.41L230.8,709.5c7.52,7.58,17.55,11.75,28.24,11.75c10.68,0,20.73-4.17,28.3-11.74l194.28-194.38
		c7.55-7.49,11.72-17.48,11.75-28.13c0.03-10.72-4.14-20.81-11.74-28.41L459.47,436.42z"/>
</g>
<path d="M510.94,37.16v57.33c0,16.57-13.43,30-30,30H37.93c-16.57,0-30-13.43-30-30V37.16c0-16.57,13.43-30,30-30h443.02
	C497.51,7.16,510.94,20.59,510.94,37.16z"/>
</svg>
