<?xml version="1.0" encoding="iso-8859-1"?>
<!-- Generator: Adobe Illustrator 22.1.0, SVG Export Plug-In . SVG Version: 6.00 Build 0)  -->
<svg version="1.1" id="Camada_1" xmlns="http://www.w3.org/2000/svg" xmlns:xlink="http://www.w3.org/1999/xlink" x="0px" y="0px"
	 viewBox="0 0 510 512" style="enable-background:new 0 0 510 512;" xml:space="preserve" fill="#e75629">
<g>
	<g id="XMLID_1736_">
		<path id="XMLID_1737_" d="M385.116,273.85c-25.6,0-46.3,20.8-46.3,46.3c0,6.1,5,11.1,11.1,11.1s11.1-5,11.1-11.1
			c0-13.3,10.9-24.2,24.2-24.2c6.1,0,11.1-5,11.1-11.1C396.216,278.75,391.216,273.85,385.116,273.85z"/>
		<path id="XMLID_1738_" d="M460.616,241.95c-2.7-2.6-5.6-5.1-8.6-7.5l0,0l-41-34.8c-15.8-11.2-34.6-18.3-55-19.7l2.2,2.2l-24.9-25
			h-0.2c-6.9-6.3-16.2-10.2-26.3-10.2c-17.4,0-32.1,11.3-37.1,27c-5-3.2-10.8-5.1-17.1-5.5c-1-0.1-2.1-0.1-3.1-0.1
			c-7.1,0-13.7,2.1-19.3,5.6c-5.1-15.6-19.8-26.9-37.1-26.9c-10.1,0-19.3,3.8-26.3,10.2h-0.2l-24.9,25l2.2-2.2
			c-20.4,1.4-39.3,8.6-55,19.7l-41,34.8l0,0c-3,2.3-5.9,4.8-8.6,7.5c-20.5,19.8-33.2,47.5-33.2,78.2c0,60,48.8,108.8,108.8,108.8
			c55.4,0,101.3-41.7,107.9-95.4c8,4.6,17.3,7.2,27.1,7.2c9.9,0,19.1-2.6,27.1-7.2c6.7,53.6,52.5,95.3,107.9,95.3
			c60,0,108.8-48.8,108.8-108.8C493.816,289.45,481.116,261.75,460.616,241.95z M114.916,394.45c-41,0-74.2-33.2-74.2-74.2
			s33.2-74.2,74.2-74.2s74.2,33.2,74.2,74.2C189.216,361.15,155.916,394.45,114.916,394.45z M250.016,310.05
			c-13.3,0-24.1-10.8-24.1-24.1s10.8-24.1,24.1-24.1c13.3,0,24.1,10.8,24.1,24.1S263.316,310.05,250.016,310.05z M385.116,394.45
			c-41,0-74.2-33.2-74.2-74.2s33.2-74.2,74.2-74.2s74.2,33.2,74.2,74.2C459.316,361.15,426.116,394.45,385.116,394.45z"/>
		<path id="XMLID_1745_" d="M114.916,273.85c-25.6,0-46.3,20.8-46.3,46.3c0,6.1,5,11.1,11.1,11.1c6.1,0,11.1-5,11.1-11.1
			c0-13.3,10.9-24.2,24.2-24.2c6.1,0,11.1-5,11.1-11.1C126.016,278.75,121.016,273.85,114.916,273.85z"/>
	</g>
</g>
<path d="M460.677,94.984l35.808-35.808c4.686-4.686,4.686-12.284,0-16.97l-16.26-16.26c-4.69-4.69-12.28-4.69-16.97,0l-35.81,35.807
	l-35.81-35.811c-4.686-4.686-12.284-4.686-16.97,0l-16.26,16.26c-4.69,4.69-4.69,12.28,0,16.97l35.808,35.811l-35.811,35.808
	c-4.687,4.686-4.687,12.285-0.001,16.971l16.263,16.263c4.686,4.686,12.284,4.686,16.971,0l35.809-35.809l35.806,35.809
	c4.686,4.687,12.285,4.687,16.971,0.001l16.263-16.264c4.686-4.686,4.686-12.284,0-16.971L460.677,94.984z"/>
</svg>
