<?xml version="1.0" encoding="utf-8"?>
<!-- Generator: Adobe Illustrator 23.0.4, SVG Export Plug-In . SVG Version: 6.00 Build 0)  -->
<svg version="1.1" id="Camada_1" xmlns="http://www.w3.org/2000/svg" xmlns:xlink="http://www.w3.org/1999/xlink" x="0px" y="0px"
	 viewBox="0 0 512 512" style="enable-background:new 0 0 512 512;" xml:space="preserve">
<g>
	<path d="M131.22,1H21.07C9.98,1,1,10,1,21.11v110.36c0,11.1,8.98,20.11,20.07,20.11h110.15c11.08,0,20.07-9,20.07-20.11V21.11
		C151.29,10,142.3,1,131.22,1z"/>
	<path d="M311.07,1H200.93c-11.08,0-20.07,9-20.07,20.11v110.36c0,11.1,8.98,20.11,20.07,20.11h110.15c11.08,0,20.07-9,20.07-20.11
		V21.11C331.14,10,322.16,1,311.07,1z"/>
	<path d="M490.93,1H380.78c-11.08,0-20.07,9-20.07,20.11v110.36c0,11.1,8.98,20.11,20.07,20.11h110.15c11.08,0,20.07-9,20.07-20.11
		V21.11C511,10,502.02,1,490.93,1z"/>
	<path d="M131.22,180.71H21.07c-11.08,0-20.07,9-20.07,20.11v110.36c0,11.1,8.98,20.11,20.07,20.11h110.15
		c11.08,0,20.07-9,20.07-20.11V200.82C151.29,189.72,142.3,180.71,131.22,180.71z"/>
	<path d="M311.07,180.71H200.93c-11.08,0-20.07,9-20.07,20.11v110.36c0,11.1,8.98,20.11,20.07,20.11h110.15
		c11.08,0,20.07-9,20.07-20.11V200.82C331.14,189.72,322.16,180.71,311.07,180.71z"/>
	<path d="M490.93,180.71H380.78c-11.08,0-20.07,9-20.07,20.11v110.36c0,11.1,8.98,20.11,20.07,20.11h110.15
		c11.08,0,20.07-9,20.07-20.11V200.82C511,189.72,502.02,180.71,490.93,180.71z"/>
	<path d="M131.22,360.43H21.07c-11.08,0-20.07,9-20.07,20.11v110.36C1,502,9.98,511,21.07,511h110.15c11.08,0,20.07-9,20.07-20.11
		V380.53C151.29,369.43,142.3,360.43,131.22,360.43z"/>
	<path d="M311.07,360.43H200.93c-11.08,0-20.07,9-20.07,20.11v110.36c0,11.1,8.98,20.11,20.07,20.11h110.15
		c11.08,0,20.07-9,20.07-20.11V380.53C331.14,369.43,322.16,360.43,311.07,360.43z"/>
	<path d="M490.93,360.43H380.78c-11.08,0-20.07,9-20.07,20.11v110.36c0,11.1,8.98,20.11,20.07,20.11h110.15
		c11.08,0,20.07-9,20.07-20.11V380.53C511,369.43,502.02,360.43,490.93,360.43z"/>
</g>
</svg>
