<?xml version="1.0" encoding="utf-8"?>
<!-- Generator: Adobe Illustrator 23.0.4, SVG Export Plug-In . SVG Version: 6.00 Build 0)  -->
<svg version="1.1" id="Camada_1" focusable="false" xmlns="http://www.w3.org/2000/svg" xmlns:xlink="http://www.w3.org/1999/xlink"
	 x="0px" y="0px" viewBox="0 0 448 512" style="enable-background:new 0 0 448 512;" xml:space="preserve">
<g>
	<path d="M308,96h-40c-6.6,0-12,5.4-12,12v40c0,6.6,5.4,12,12,12h40c6.6,0,12-5.4,12-12v-40C320,101.4,314.6,96,308,96z"/>
	<path d="M436,464h-19.5V290.78l-36.07,36.07l-11.93,11.93V463H256v-67c0-6.6-5.4-12-12-12h-40c-6.6,0-12,5.4-12,12v67H79.5L80,48
		l288.5,1v121.74c8.66-7.37,19.54-11.4,31.03-11.4c5.89,0,11.62,1.07,16.97,3.09V24c0-13.3-10.7-24-24-24h-337
		c-13.3,0-24,10.7-24,24v440H12c-6.6,0-12,5.4-12,12v36h448v-36C448,469.4,442.6,464,436,464z"/>
	<path d="M192,204c0-6.6-5.4-12-12-12h-40c-6.6,0-12,5.4-12,12v40c0,6.6,5.4,12,12,12h40c6.6,0,12-5.4,12-12V204z"/>
	<path d="M180,288h-40c-6.6,0-12,5.4-12,12v40c0,6.6,5.4,12,12,12h40c6.6,0,12-5.4,12-12v-40C192,293.4,186.6,288,180,288z"/>
	<path d="M192,108c0-6.6-5.4-12-12-12h-40c-6.6,0-12,5.4-12,12v40c0,6.6,5.4,12,12,12h40c6.6,0,12-5.4,12-12V108z"/>
</g>
<path d="M399.53,193.34c3.07,0,6.14,1.17,8.48,3.52l16.26,16.26c4.69,4.69,4.69,12.28,0,16.97l-69.3,69.3l-24.75,24.75
	c-2.35,2.34-5.41,3.52-8.48,3.52s-6.14-1.17-8.49-3.52l-24.75-24.75l-28.99-28.99c-4.69-4.69-4.69-12.28,0-16.97l16.26-16.26
	c2.35-2.35,5.42-3.52,8.48-3.52c3.07,0,6.14,1.17,8.49,3.52l28.99,28.99l69.31-69.3C393.39,194.52,396.46,193.34,399.53,193.34"/>
</svg>
