<svg width="31" height="29" xmlns="http://www.w3.org/2000/svg"><path d="M30.601 11.381a.93.93 0 0 1-.746.37.932.932 0 0 1-.545-.175L15.78 2.897l-13.53 8.68a.938.938 0 0 1-1.291-.196.891.891 0 0 1 .2-1.263l14.075-9.07a.94.94 0 0 1 1.092 0l14.075 9.07a.89.89 0 0 1 .2 1.263zm-24.976.4c.51 0 .923.405.923.904v14.383h4.613v-3.776c0-2.491 2.072-4.518 4.619-4.518 2.547 0 4.619 2.027 4.619 4.518v3.776h4.613V12.685c0-.499.414-.904.924-.904s.923.405.924.904v15.286a.915.915 0 0 1-.924.904h-6.46a.915.915 0 0 1-.924-.904v-4.679c0-1.495-1.243-2.711-2.772-2.711-1.528 0-2.771 1.216-2.771 2.711v4.679a.915.915 0 0 1-.924.904h-6.46a.914.914 0 0 1-.924-.904V12.685c0-.499.413-.904.924-.904z" fill="#E55733" fill-rule="evenodd"/></svg>