<?xml version="1.0" encoding="utf-8"?>
<!-- Generator: Adobe Illustrator 23.0.4, SVG Export Plug-In . SVG Version: 6.00 Build 0)  -->
<svg version="1.1" id="Modo_de_isolamento" xmlns="http://www.w3.org/2000/svg" xmlns:xlink="http://www.w3.org/1999/xlink" x="0px"
	 y="0px" viewBox="0 0 1920 1080" style="enable-background:new 0 0 1920 1080;" xml:space="preserve">
<style type="text/css">
	.st0{fill:#010202;}
</style>
<g>
	<path class="st0" d="M1173.88,705.53l-22.86-288.12c-1.78-23.22-21.42-41.41-44.71-41.41h-36.39c-3.6-56.3-50.55-101-107.75-101
		s-104.14,44.7-107.75,101h-36.38c-23.29,0-42.93,18.17-44.71,41.35l-22.87,288.22c-1.96,25.57,6.91,51.02,24.33,69.83
		c17.42,18.81,42.12,29.6,67.76,29.6h239.23c25.64,0,50.34-10.79,67.77-29.6C1166.98,756.59,1175.84,731.12,1173.88,705.53z
		 M962.17,322.99c30.71,0,56.11,23.21,59.58,53.01H902.59C906.06,346.2,931.46,322.99,962.17,322.99z M1114.34,742.79
		c-8.5,9.17-20.06,14.22-32.56,14.22H843.36c-12.82,0-25.23-5.18-33.8-14.71c-8.19-9.1-12.18-20.8-11.25-33l22.64-285.31h33.26V440
		c0,6.6,5.4,12,12,12h23.99c6.63,0,12-5.37,12-12v-16.01h119.96V440c0,6.63,5.37,12,12,12h23.99c6.63,0,12-5.37,12-12v-16.01h33.26
		l22.64,285.25C1126.99,721.7,1122.84,733.62,1114.34,742.79z"/>
	<path class="st0" d="M1031.21,626.79L926.36,521.94c-4.69-4.69-12.28-4.69-16.97,0l-16.26,16.26c-4.69,4.69-4.69,12.28,0,16.97
		l104.84,104.85c4.69,4.69,12.28,4.69,16.97,0l16.26-16.26C1035.9,639.08,1035.9,631.48,1031.21,626.79z"/>
	<path class="st0" d="M926.36,660.02l104.85-104.85c4.69-4.69,4.69-12.28,0-16.97l-16.26-16.26c-4.69-4.69-12.28-4.69-16.97,0
		L893.13,626.79c-4.69,4.69-4.69,12.28,0,16.97l16.26,16.26C914.08,664.71,921.68,664.71,926.36,660.02z"/>
</g>
</svg>
