<?xml version="1.0" encoding="utf-8"?>
<!-- Generator: Adobe Illustrator 23.0.4, SVG Export Plug-In . SVG Version: 6.00 Build 0)  -->
<svg version="1.1" id="Camada_1" xmlns="http://www.w3.org/2000/svg" xmlns:xlink="http://www.w3.org/1999/xlink" x="0px" y="0px"
	 viewBox="0 0 1920 1080" style="enable-background:new 0 0 1920 1080;" xml:space="preserve">
<style type="text/css">
	.st0{fill:#010202;}
</style>
<g>
	<path class="st0" d="M1171.71,705.53l-22.86-288.12c-1.78-23.22-21.42-41.41-44.71-41.41h-36.39c-3.6-56.3-50.55-101-107.75-101
		s-104.14,44.7-107.75,101h-36.38c-23.29,0-42.93,18.17-44.71,41.35l-22.87,288.22c-1.96,25.57,6.91,51.02,24.33,69.83
		c17.42,18.81,42.12,29.6,67.76,29.6h239.23c25.64,0,50.34-10.79,67.77-29.6C1164.81,756.59,1173.67,731.12,1171.71,705.53z
		 M960,322.99c30.71,0,56.11,23.21,59.58,53.01H900.42C903.89,346.2,929.29,322.99,960,322.99z M1112.17,742.79
		c-8.5,9.17-20.06,14.22-32.56,14.22H841.19c-12.82,0-25.23-5.18-33.8-14.71c-8.19-9.1-12.18-20.8-11.25-33l22.64-285.31h33.26V440
		c0,6.6,5.4,12,12,12h23.99c6.63,0,12-5.37,12-12v-16.01h119.96V440c0,6.63,5.37,12,12,12h23.99c6.63,0,12-5.37,12-12v-16.01h33.26
		l22.64,285.25C1124.82,721.7,1120.67,733.62,1112.17,742.79z"/>
	<path class="st0" d="M939.85,599.4l-28.99-28.99c-4.69-4.69-12.28-4.69-16.97,0l-16.26,16.26c-4.69,4.69-4.69,12.28,0,16.97
		l28.99,28.99l24.75,24.75c4.69,4.69,12.28,4.69,16.97,0l24.75-24.75l69.3-69.3c4.69-4.69,4.69-12.28,0-16.97l-16.26-16.26
		c-4.69-4.69-12.28-4.69-16.97,0L939.85,599.4z"/>
</g>
</svg>
