<svg version="1.1" id="Layer_1" xmlns="http://www.w3.org/2000/svg" xmlns:xlink="http://www.w3.org/1999/xlink" x="0px" y="0px"
	 viewBox="0 0 123.8 34.3" style="enable-background:new 0 0 123.8 34.3;" xml:space="preserve">
<g>
	<g id="logo">
		<path fill="#FCCD03" d="M20.6,9.5c-2.1-1.5-5-2.5-7.8-3.2c-2.7-0.7-5-1.1-6.7-1.5C5.3,6.4,4.9,7.9,5.8,8.9c1,1.2,3.5,1.9,8,3.3
			c3.1,0.9,5.9,2,8,3.5c1.5,1.1,2.5,2.7,2.6,4.2c0.1-0.6,0.1-1.2,0.1-1.7c0-1.8-0.4-3.6-1-5.2C23,11.7,22,10.4,20.6,9.5"/>
		<path fill="#F15A24" d="M21.7,18.7c-1.7-1.3-3.9-2.3-6.4-3.1c-2.6-0.9-5.2-1.5-7.7-2.1c-2.4-0.5-4.5-1-6.1-1.5c-1.4,4.2-1,7.4,1,9.4
			c1,1,2.5,1.8,4.4,2.5s4.2,1.3,6.8,2.3c1.5,0.6,2.7,1.3,3.4,2.1c0.5,0.7,0.6,1.6,0.3,2.2c3.2-1.9,5.7-4.9,6.7-8.6
			C23.7,20.8,22.9,19.7,21.7,18.7"/>
		<path fill="#910909" d="M10.5,27.4c-1-0.2-4.8-1.2-6.2-2c-0.6,1.7,0.4,3.8,1.2,4.6c0.4,0.4,0.7,1.2,4.4,1.9c2.4,0.5,2.1,1.5,2,1.8
			c1.4-0.2,2.3-0.8,2.8-1.6C15,31.6,15.9,28.7,10.5,27.4"/>
		<path fill="#FCCD03" d="M23.1,10c-0.4-1.2-0.9-2.2-1.5-3.2c-0.3-0.5-0.7-1-1.1-1.4s-0.8-0.9-1.2-1.3C18.9,3.7,18.4,3.3,18,3
			c-0.4-0.3-0.9-0.6-1.4-0.9c-0.9-0.5-1.8-1-2.8-1.3c-0.7-0.2-2-0.5-2.8-0.2c-0.9,0.3-0.8,1.1,0.3,1.5h0.1c1.4,0.4,2.8,1,4.2,1.6
			c0.7,0.3,1.3,0.7,2,1.1c0.6,0.4,1.2,0.8,1.8,1.2c0.5,0.4,1.1,0.8,1.5,1.3c0.5,0.4,0.9,0.8,1.2,1.2C22.4,9.1,22.8,9.6,23.1,10"/>
	</g>
	<g id="horizon">
		<path fill="#F15A24" d="M72.2,33.9c-0.5,0-1-0.1-1.3-0.2c-0.2,0-0.2-0.1-0.2-0.2l0.8-4.4l0.2-0.1h0.7l0.1,0.1l-0.2,1.1
			c0.2,0,0.4,0,0.5,0c1,0,1.5,0.6,1.3,1.6L74,32.3C73.8,33.3,73.2,33.9,72.2,33.9 M73.1,31.8c0.1-0.4,0-0.8-0.4-0.8
			c-0.1,0-0.4,0-0.5,0l-0.3,1.9c0.1,0,0.3,0,0.5,0c0.4,0,0.6-0.3,0.7-0.8L73.1,31.8z"/>
		<path fill="#F15A24" d="M75.9,33.9L75.9,33.9c-0.5,0-1.6-0.1-1.3-1.6l0.3-1.9l0.1-0.1h0.8l0.1,0.1l-0.3,1.9c-0.1,0.6,0.1,0.7,0.3,0.7
			H76c0.3,0,0.5-0.1,0.6-0.7l0.3-1.9l0.1-0.1h0.8l0.1,0.1l-0.3,1.9C77.4,33.7,76.3,33.9,75.9,33.9"/>
		<path fill="#F15A24" d="M79.3,33.9c-0.3,0-0.8,0-1.1-0.1l-0.1-0.1l0.1-0.5l0.1-0.1l0,0c0.3,0,0.8,0.1,1,0.1c0.3,0,0.4-0.1,0.4-0.2
			s0-0.2-0.2-0.3l-0.7-0.5c-0.3-0.2-0.5-0.5-0.4-0.9c0.1-0.6,0.6-1,1.4-1c0.5,0,0.8,0.1,1.1,0.1l0.1,0.1L80.9,31l-0.1,0.1l0,0
			c-0.2,0-0.7-0.1-1-0.1c-0.2,0-0.3,0-0.4,0.2c0,0.1,0,0.1,0.2,0.2l0.7,0.4c0.5,0.3,0.5,0.6,0.5,1C80.7,33.4,80.2,33.9,79.3,33.9"/>
		<path fill="#F15A24" d="M82.9,29.8h-0.8L82,29.7l0.1-0.6l0.1-0.1H83l0.1,0.1L83,29.7 M82.1,33.8h-0.8l-0.1-0.1l0.6-3.3l0.1-0.1h0.8
			l0.1,0.1l-0.6,3.3L82.1,33.8"/>
		<path fill="#F15A24" d="M86,33.8h-0.8l-0.1-0.1l0.4-2.2c0-0.3,0-0.5-0.3-0.5h-0.3c-0.3,0-0.4,0.2-0.4,0.5l-0.4,2.2l-0.2,0.1h-0.8
			L83,33.7l0.4-2.2c0.2-0.9,0.7-1.3,1.6-1.3h0.3c0.9,0,1.3,0.4,1.1,1.3L86,33.7L86,33.8"/>
		<path fill="#F15A24" d="M89.9,32.3h-2l0,0c-0.1,0.4,0,0.7,0.5,0.7c0.4,0,0.9,0,1.2-0.1l0,0l0.1,0.1l-0.1,0.5c0,0.1-0.1,0.1-0.2,0.2
			c-0.4,0.1-0.8,0.1-1.3,0.1c-0.8,0-1.5-0.4-1.3-1.6l0.1-0.4c0.2-1,0.9-1.6,1.9-1.6s1.4,0.7,1.3,1.6L90,32.2L89.9,32.3 M89.2,31.7
			c0.1-0.5-0.1-0.7-0.4-0.7s-0.6,0.2-0.7,0.7l0,0H89.2L89.2,31.7z"/>
		<path fill="#F15A24" d="M91.6,33.9c-0.3,0-0.8,0-1.1-0.1l-0.1-0.1l0.1-0.5l0.1-0.1l0,0c0.3,0,0.8,0.1,1,0.1c0.3,0,0.4-0.1,0.4-0.2
			s0-0.2-0.2-0.3l-0.7-0.5c-0.3-0.2-0.5-0.5-0.4-0.9c0.1-0.6,0.6-1,1.4-1c0.5,0,0.8,0.1,1.1,0.1l0.1,0.1L93.2,31l-0.1,0.1l0,0
			c-0.2,0-0.7-0.1-1-0.1c-0.2,0-0.3,0-0.4,0.2c0,0.1,0,0.1,0.2,0.2l0.7,0.4c0.5,0.3,0.5,0.6,0.5,1C93,33.4,92.5,33.9,91.6,33.9"/>
		<path fill="#F15A24" d="M94.7,33.9c-0.3,0-0.8,0-1.1-0.1l-0.1-0.1l0.1-0.5l0.1-0.1l0,0c0.3,0,0.8,0.1,1,0.1c0.3,0,0.4-0.1,0.4-0.2
			s0-0.2-0.2-0.3l-0.7-0.5c-0.3-0.2-0.5-0.5-0.4-0.9c0.1-0.6,0.6-1,1.4-1c0.5,0,0.8,0.1,1.1,0.1l0.1,0.1L96.3,31l-0.1,0.1l0,0
			c-0.2,0-0.7-0.1-1-0.1c-0.2,0-0.3,0-0.4,0.2c0,0.1,0,0.1,0.2,0.2l0.7,0.4c0.5,0.3,0.5,0.6,0.5,1C96.2,33.4,95.7,33.9,94.7,33.9"/>
		<path fill="#F15A24" d="M100.7,31h-0.8l-0.3,1.8c0,0.2,0.1,0.3,0.3,0.3h0.5l0.1,0.1l-0.1,0.5l-0.1,0.1c-0.2,0-0.5,0.1-0.8,0.1
			c-0.7,0-1.1-0.2-0.9-1l0.5-3.1l0.1-0.1l0.8-0.1l0,0l0.1,0.1l-0.1,0.7h0.8l0.1,0.1l-0.1,0.5H100.7"/>
		<path fill="#F15A24" d="M103.9,32.3h-2l0,0c-0.1,0.4,0,0.7,0.5,0.7c0.4,0,1,0,1.2-0.1l0,0l0.1,0.1l-0.1,0.5c0,0.1,0,0.1-0.2,0.2
			c-0.4,0.1-0.8,0.1-1.3,0.1c-0.8,0-1.5-0.4-1.3-1.6l0.1-0.4c0.2-1,0.9-1.6,1.9-1.6s1.4,0.7,1.2,1.6L103.9,32.3L103.9,32.3
			 M103.2,31.7c0.1-0.5-0.1-0.7-0.4-0.7s-0.6,0.2-0.7,0.7l0,0H103.2L103.2,31.7z"/>
		<polyline fill="#F15A24" points="105.4,33.8 104.6,33.8 104.5,33.7 105.3,29.2 105.4,29 106.2,29 106.3,29.2 105.5,33.7 		"/>
		<path fill="#F15A24" d="M109.4,32.3h-2l0,0c-0.1,0.4,0,0.7,0.5,0.7c0.4,0,1,0,1.2-0.1l0,0l0.1,0.1l-0.1,0.5c0,0.1-0.1,0.1-0.2,0.2
			c-0.4,0.1-0.8,0.1-1.3,0.1c-0.7,0-1.5-0.4-1.3-1.6l0.1-0.4c0.2-1,0.9-1.6,1.9-1.6s1.4,0.7,1.2,1.6L109.4,32.3L109.4,32.3
			 M108.6,31.7c0.1-0.5-0.1-0.7-0.4-0.7s-0.6,0.2-0.7,0.7l0,0H108.6L108.6,31.7z"/>
		<path fill="#F15A24" d="M112.1,33.8c-0.2,0-0.5,0.1-0.8,0.1c-0.9,0-1.3-0.6-1.2-1.6l0.1-0.5c0.2-1,0.8-1.6,1.7-1.6
			c0.4,0,0.6,0,0.8,0.1l0.1,0.1l-0.1,0.5l-0.1,0.1l0,0c-0.2,0-0.4,0-0.7,0c-0.3,0-0.5,0.2-0.6,0.7l-0.1,0.5
			c-0.1,0.6,0.1,0.7,0.4,0.7c0.4,0,0.5,0,0.8,0l0,0l0.1,0.1l-0.1,0.6L112.1,33.8"/>
		<path fill="#F15A24" d="M114.1,33.9c-1,0-1.4-0.6-1.3-1.6l0.1-0.4c0.2-1,0.8-1.6,1.8-1.6s1.4,0.6,1.3,1.6l-0.1,0.4
			C115.7,33.2,115.1,33.9,114.1,33.9 M115,31.8c0.1-0.5-0.1-0.8-0.4-0.8c-0.4,0-0.6,0.3-0.7,0.8l-0.1,0.4c-0.1,0.5,0.1,0.8,0.4,0.8
			c0.4,0,0.6-0.3,0.7-0.8L115,31.8z"/>
		<path fill="#F15A24" d="M120.8,33.8H120l-0.1-0.1l0.4-2.2c0.1-0.4,0-0.5-0.3-0.5h-0.1c-0.3,0-0.4,0.2-0.4,0.5l-0.4,2.2l-0.1,0.1h-0.8
			l-0.1-0.1l0.4-2.2c0-0.3,0-0.5-0.3-0.5h-0.1c-0.3,0-0.4,0.1-0.4,0.5l-0.4,2.2l-0.2,0.1h-0.8l-0.1-0.1l0.4-2.2
			c0.2-0.9,0.7-1.3,1.6-1.3h0.1c0.4,0,0.6,0.1,0.8,0.3c0.2-0.2,0.5-0.3,0.9-0.3h0.1c0.9,0,1.3,0.4,1.1,1.3l-0.4,2.2L120.8,33.8"/>
		<path d="M45.4,9.8l-2.8,16c0,0.2-0.3,0.5-0.5,0.5h-3c-0.2,0-0.4-0.2-0.4-0.4v-0.1l1.1-6.6h-5.6l-1.1,6.6c0,0.2-0.3,0.5-0.5,0.5h-3
			c-0.2,0-0.4-0.2-0.4-0.4v-0.1l2.8-16c0-0.3,0.3-0.4,0.5-0.4h3c0.2,0,0.4,0.1,0.4,0.4v0.1l-1.1,6h5.6l1.1-6c0-0.3,0.3-0.4,0.5-0.4
			h3C45.3,9.3,45.4,9.5,45.4,9.8"/>
		<path d="M57.8,18.9l-0.3,1.6c-0.7,3.9-2.7,5.9-6.7,5.9c-3.1,0-4.8-2-4.8-4.6c0-0.4,0-0.8,0.1-1.3l0.3-1.6c0.8-4.1,3-5.9,6.7-5.9
			c3.1,0,4.8,1.8,4.8,4.6C57.9,18,57.8,18.7,57.8,18.9 M52.6,16.2c-1.3,0-2.2,0.8-2.5,2.8l-0.3,1.6c-0.1,0.4-0.1,0.8-0.1,1.1
			c0,1.2,0.5,1.7,1.7,1.7c1.5,0,2.2-1,2.5-2.8l0.3-1.6c0.1-0.4,0.1-0.7,0.1-1C54.3,16.7,53.7,16.2,52.6,16.2"/>
		<path d="M67.5,13.5l-0.4,2.2c0,0.3-0.3,0.4-0.7,0.4c-0.7,0-1.6,0-2.1,0.1l-1.7,9.5c0,0.3-0.3,0.5-0.5,0.5h-2.7
			c-0.2,0-0.4-0.2-0.4-0.4v-0.1l2-11.3c0-0.3,0.3-0.5,0.8-0.7c1.5-0.5,3-0.7,5.1-0.7C67.2,13,67.5,13.1,67.5,13.5"/>
		<path d="M73.1,13.7L71,25.8c0,0.2-0.3,0.5-0.5,0.5h-2.8c-0.2,0-0.4-0.2-0.4-0.4v-0.1l2.1-12.1c0-0.2,0.3-0.5,0.5-0.5h2.8
			C73,13.2,73.1,13.4,73.1,13.7 M74,9.2l-0.4,2.1c0,0.3-0.3,0.5-0.5,0.5h-3c-0.2,0-0.4-0.2-0.4-0.4v-0.1l0.4-2.1
			c0-0.3,0.3-0.5,0.5-0.5h3C73.8,8.7,74,8.9,74,9.2L74,9.2z"/>
		<path d="M85.2,13.8v0.1l-0.3,1.7c0,0.2-0.1,0.5-0.4,0.8l-5.7,6.4L78.7,23l0.1,0.1h4.3c0.2,0,0.3,0.1,0.3,0.3v0.1L83,25.8
			c0,0.2-0.3,0.5-0.5,0.5H74c-0.4,0-0.6-0.3-0.6-0.6v-0.1l0.3-1.5c0-0.3,0.2-0.5,0.5-0.9l5.9-6.7l0.1-0.2l-0.1-0.1h-4.4
			c-0.2,0-0.3-0.1-0.3-0.3v-0.1l0.4-2.1c0-0.2,0.3-0.5,0.5-0.5h8.3C84.9,13.2,85.2,13.5,85.2,13.8"/>
		<path d="M97.7,18.9l-0.3,1.6c-0.7,3.9-2.7,5.9-6.7,5.9c-3.1,0-4.8-2-4.8-4.6c0-0.4,0-0.8,0.1-1.3l0.3-1.6c0.8-4.1,3-5.9,6.7-5.9
			c3.1,0,4.8,1.8,4.8,4.6C97.8,18,97.8,18.7,97.7,18.9 M92.5,16.2c-1.3,0-2.2,0.8-2.5,2.8l-0.3,1.6c-0.1,0.4-0.1,0.8-0.1,1.1
			c0,1.2,0.5,1.7,1.7,1.7c1.5,0,2.2-1,2.5-2.8l0.3-1.6c0.1-0.4,0.1-0.7,0.1-1C94.2,16.7,93.6,16.2,92.5,16.2"/>
		<path d="M111.3,18l-1.4,7.7c0,0.2-0.3,0.5-0.5,0.5h-2.8c-0.2,0-0.4-0.2-0.4-0.4v-0.1l1.4-8c0-0.3,0.1-0.5,0.1-0.7
			c0-0.6-0.2-1-1.1-1h-1.1c-1.2,0-1.4,0.6-1.6,1.7l-1.4,8c0,0.2-0.3,0.5-0.5,0.5h-2.8c-0.2,0-0.4-0.2-0.4-0.4v-0.1l1.5-8.3
			c0.5-3.1,2.5-4.5,5.8-4.5h1.1c2.8,0,4.3,1.4,4.3,3.7C111.4,17.2,111.4,17.6,111.3,18"/>
		<path d="M123.3,14.1l-0.3,1.8c0,0.3-0.2,0.4-0.5,0.4h-0.1c-0.6-0.1-2.6-0.3-3.7-0.3h-0.1c-0.6,0-1.2,0-1.2,0.8
			c0,0.3,0.2,0.5,0.5,0.7l2.5,1.6c1.4,0.9,1.8,1.9,1.8,2.8c0,3.3-2.7,4.5-5.6,4.5c-1.2,0-2.9-0.2-4-0.5c-0.2-0.1-0.3-0.2-0.3-0.4
			v-0.1l0.3-1.8c0-0.3,0.2-0.4,0.5-0.4h0.1c1.2,0.2,2.8,0.3,3.8,0.3c0.8,0,1.5-0.1,1.5-1c0-0.3-0.2-0.6-0.7-0.9l-2.7-1.7
			c-1-0.7-1.5-1.7-1.5-2.7c0-3.2,2.6-4.1,5.3-4.1c1.6,0,2.8,0.2,4,0.5c0.2,0.1,0.3,0.2,0.3,0.4"/>
	</g>
</g>
</svg>
