<svg xmlns="http://www.w3.org/2000/svg" width="272" height="356">
  <path fill="#ffcb00" d="M226.878 96.551c-23.907-16.037-56.922-26.728-88.798-34.211-30.738-7.484-56.922-11.76-76.276-16.037-9.107 17.106-13.661 33.142-3.415 43.833 11.384 12.83 39.845 20.313 91.075 35.28 35.292 9.622 67.168 21.383 91.075 37.419 17.077 11.76 28.461 28.865 29.6 44.902 1.138-6.415 1.138-12.829 1.138-18.175 0-19.244-4.554-38.487-11.384-55.593-5.692-13.898-17.077-27.796-33.015-37.418" class="st0"/>
  <path fill="#fa5d19" d="M239.4 194.908c-19.353-13.9-44.398-24.59-72.86-33.143-29.599-9.621-59.198-16.036-87.66-22.45-27.322-5.346-51.229-10.692-69.444-16.037C-6.503 168.18-1.95 202.39 20.82 223.773c11.385 10.69 28.461 19.244 50.092 26.727s47.814 13.899 77.414 24.59c17.076 6.414 30.738 13.898 38.707 22.451 5.692 7.483 6.83 17.105 3.415 23.52 36.43-20.313 64.891-52.386 76.275-91.943-4.553-11.76-13.66-23.52-27.322-34.21" class="st1"/>
  <path fill="#971201" d="M111.895 287.919c-11.384-2.138-54.645-12.829-70.583-21.382-6.83 18.175 4.554 40.626 13.661 49.179 4.554 4.276 7.97 12.829 50.092 20.312 27.322 5.346 23.907 16.037 22.769 19.244 15.938-2.138 26.184-8.553 31.876-17.105 3.415-5.346 13.661-36.35-47.815-50.248" class="st2"/>
  <path fill="#ffcb00" d="M255.34 101.896c-4.554-12.829-10.247-23.52-17.078-34.211-3.415-5.345-7.968-10.69-12.522-14.967s-9.108-9.622-13.662-13.898c-4.553-4.276-10.245-8.553-14.8-11.76-4.553-3.208-10.245-6.415-15.938-9.622-10.245-5.346-20.491-10.691-31.876-13.899-7.97-2.138-22.768-5.345-31.877-2.138-10.245 3.208-9.107 11.76 3.416 16.037h1.139c15.938 4.276 31.876 10.69 47.814 17.106 7.97 3.207 14.8 7.483 22.769 11.76l20.492 12.828c5.692 4.277 12.523 8.553 17.077 13.899 5.692 4.276 10.245 8.552 13.66 12.83 3.416 6.413 7.97 11.759 11.385 16.035" class="st0"/>
</svg>